<svg xmlns="http://www.w3.org/2000/svg" viewBox="0 0 28 28" id="lexus"><path fill="#FFE577" d="M15.639 5.956c-2.964 1.362-7.43 6.341-7.6 10.141-.17 3.8 4.243 2.382 5.184 0 .942-2.382 2.101-5.218 3.818-7.033 1.718-1.815 2.398-4.854-1.402-3.108z"></path><path d="M14 23c-8.29 0-12-4.513-12-8.985C2 9.673 5.746 5 13.971 5c1.346 0 2.601.138 4.071.448.647.131.874.493.951.697.117.309.052.658-.177.959a158.115 158.115 0 0 0-3.119 4.071 40.577 40.577 0 0 0-2.909 4.511c-.057.103-.055.264-.015.332l10.021.021a3.926 3.926 0 0 0 .51-2.022c.38-2.456-.018-4.313-1.175-5.61a.502.502 0 0 1 .333-.873c.15 0 .307.085.411.206h.001c1.368 1.532 1.847 3.666 1.424 6.343.029.905-.25 1.879-.803 2.729a.5.5 0 0 1-.419.228H12.84a1.05 1.05 0 0 1-.929-.514c-.226-.383-.225-.915.002-1.326a41.492 41.492 0 0 1 2.979-4.619 155.724 155.724 0 0 1 3.132-4.088c.048.027-.011-.03-.185-.065-.945-.2-2.236-.428-3.868-.428C6.433 6 3 10.155 3 14.015 3 17.698 5.881 22 14 22c2.78 0 5.136-.549 7.002-1.633a.502.502 0 0 1 .502.866C19.483 22.405 16.958 23 14 23z"></path><path d="M11.973 18.964c-1.073 0-2.219-.096-3.128-.917-.829-.758-.773-1.717-.755-2.032.03-.541.163-1.207.917-2.414.385-.62 4.752-6.843 5.967-8.36a.5.5 0 0 1 .781.625c-1.201 1.5-5.518 7.651-5.898 8.264-.724 1.157-.752 1.667-.768 1.942-.022.396.011.852.43 1.235.756.683 1.813.669 2.933.652l.476-.004h10.528c.231 0 .231 0 .426-.262C24.596 16.585 25 15.267 25 14.01c0-2.022-1.1-4.787-4.187-6.479a.5.5 0 0 1 .481-.877C24.764 8.557 26 11.701 26 14.01c0 1.448-.461 2.958-1.298 4.253-.298.404-.567.693-1.248.693l-10.99.004c-.161.002-.326.004-.491.004z"></path><path d="M9.285 22.417a.522.522 0 0 1-.231-.057c-3.313-1.447-5.291-4.587-5.291-8.404.039-2.794 1.608-6.68 5.905-8.462.314-.13.696.12.696.462a.496.496 0 0 1-.36.481c-3.813 1.604-5.207 5.052-5.241 7.525 0 1.271.339 5.588 4.702 7.486l.034.016a.5.5 0 0 1-.214.953z"></path></svg>